<svg xmlns="http://www.w3.org/2000/svg" viewBox="0 0 213.55 185.64"><defs><style>.cls-1{fill:#ff8166;}</style></defs><g id="Layer_2" data-name="Layer 2"><g id="Layer_1-2" data-name="Layer 1"><path class="cls-1" d="M179.89,112.87h0l33.66-19.35L196.11,63.18a48.1,48.1,0,0,0-35.34-23.65V.7l-35-.07a48.06,48.06,0,0,0-38.2,18.84l-1.23-.71-1.23-.71h0l-4.59-2.67L54,0,36.43,30.27a47.7,47.7,0,0,0-5.32,34.56L43.7,57.59a34.1,34.1,0,0,1,4.5-20.5l10.74-18.5,14.87,8.62,7.09,4.12,1.87,1.08h0l0,0,2.31,1.35,2.22,1.28,4.05,2.35,21.16,12.27,5.89,3.42-9.24,15.94-1.18,2-.31.54a33.93,33.93,0,0,1-3,4.32,31.18,31.18,0,0,1-2.15,2.42,34.14,34.14,0,0,1-4,3.53h0a.08.08,0,0,1,0,0,33.58,33.58,0,0,1-4.47,2.82c-1,.51-2,1-2.94,1.39a34.56,34.56,0,0,1-5.59,1.77c-.77.18-1.54.32-2.32.44A34.15,34.15,0,0,1,60.7,84.11c-.51-.29-1-.6-1.5-.91a34.24,34.24,0,0,1-3.28-2.42,33.63,33.63,0,0,1-3.35-3.18L72.34,66.23l5.88-3.38,9.18,16c.25-.09.5-.19.74-.3a26.27,26.27,0,0,0,10.31-7.77c.16-.19.3-.38.44-.57a34.2,34.2,0,0,1-7.62-21.62c0-.59,0-1.17,0-1.75l-12.76-7.4a47.57,47.57,0,0,0-.87,8.06L69.62,52.1l-36,20.69-7.13,4.1L0,92.12l17.44,30.34a47.64,47.64,0,0,0,27.25,21.89l0-14.52a34.2,34.2,0,0,1-15.51-14.15L18.57,97.13,33.41,88.6l7.15-4.11a46.22,46.22,0,0,0,4.25,4.6c.51.5,1,1,1.59,1.46A48.63,48.63,0,0,0,53,95.33l0,9.31-.06,34.65h0v6.86l0,8.23-.06,30.56,35,.07c1.27,0,2.52,0,3.76-.13a47.64,47.64,0,0,0,28.83-12.54l-12.56-7.29a34.1,34.1,0,0,1-20,6.36l-21.4,0,0-17.12v-3.55h0V146a45.59,45.59,0,0,0,6.1-1.38c.69-.19,1.38-.41,2.06-.65A46.94,46.94,0,0,0,82,140.68l8,4.68,16.79,9.73,7.21,4.18L126,166.18h0l33.55,19.46,17.56-30.27a47.76,47.76,0,0,0,5.3-34.54A46.91,46.91,0,0,0,179.89,112.87ZM99.47,26.38a34.26,34.26,0,0,1,23.62-12c.87-.07,1.76-.1,2.66-.1l21.39,0,0,25.4h0v7.46l0,6.37v8.43l0,14.36v6.79l-18.43,0c0,.27-.08.53-.12.8a25.87,25.87,0,0,0,1.6,12.8c.08.22.17.45.27.66a34.28,34.28,0,0,1,22.53,4.22c.51.3,1,.6,1.49.93l12.79-7.35a46.92,46.92,0,0,0-6.54-4.78l0-9.32,0-19.39v-7.4h.11v-.93A34.47,34.47,0,0,1,184.32,70L195,88.51l-33,19-1,.59-7.3,4.2-12.45,7.15-5.88,3.38-9.18-16-1.17-2-.31-.55a34.58,34.58,0,0,1-2.26-4.72,31,31,0,0,1-1-3.08,33.52,33.52,0,0,1-1.05-5.22l0,0h0a33.66,33.66,0,0,1-.22-5.31,32.38,32.38,0,0,1,.28-3.25,33.49,33.49,0,0,1,.9-4.5c.11-.41.23-.82.36-1.22.23-.76.49-1.5.77-2.23a34.1,34.1,0,0,1,14.94-17.41c.51-.29,1-.56,1.55-.83l0-14.75A46.78,46.78,0,0,0,131.51,45l-8.06-4.67Zm13.92,116.77L101,136l-5.89-3.42,9.26-16-.61-.48a25.93,25.93,0,0,0-11.92-5l-.68-.09a34.17,34.17,0,0,1-14.94,17.4c-.51.29-1,.58-1.55.84a34.46,34.46,0,0,1-3.74,1.64,33.61,33.61,0,0,1-4.43,1.3h0l0-22.8v-6.79l18.44,0h3a34.91,34.91,0,0,1,5.23.4c1.07.16,2.13.38,3.17.64a34,34,0,0,1,5,1.69v0l0,0a35,35,0,0,1,4.73,2.49c.91.57,1.79,1.19,2.65,1.84a38.08,38.08,0,0,1,3.45,3c.3.31.6.62.89.94.54.57,1,1.17,1.53,1.77a34.16,34.16,0,0,1,7.6,21.64c0,.58,0,1.17,0,1.75a33.9,33.9,0,0,1-.45,4,33.14,33.14,0,0,1-1.09,4.5L118,145.8l-.09-.05h0Zm52,5.39-10.74,18.52-21.94-12.73a47.59,47.59,0,0,0,1.86-6c.18-.71.33-1.41.46-2.11a47.11,47.11,0,0,0,.87-8.07l8.07-4.64,16.82-9.66,4.91-2.83h0l.83-.47,1.48-.85a35,35,0,0,1,1.86,8.34A34.19,34.19,0,0,1,165.35,148.54Z"/></g></g></svg>