<svg xmlns="http://www.w3.org/2000/svg" viewBox="0 0 308.83 358.23"><defs><style>.cls-1{fill:#ff8166;}.cls-2{fill:#351c19;}</style></defs><g id="Layer_2" data-name="Layer 2"><g id="Layer_1-2" data-name="Layer 1"><path class="cls-1" d="M227.72,112.87h0l33.66-19.35L243.93,63.18a48.1,48.1,0,0,0-35.34-23.65V.7l-35-.07A47.83,47.83,0,0,0,141,13.31a48.37,48.37,0,0,0-5.64,6.16l-1.22-.71-1.24-.71h0l-4.59-2.67L101.82,0,84.26,30.27a47.6,47.6,0,0,0-5.32,34.56l12.58-7.24A34.18,34.18,0,0,1,96,37.09l10.73-18.5,14.87,8.62,7.09,4.12,1.87,1.08h0l.06,0L133,33.79l2.22,1.28,4,2.35,21.15,12.27,5.9,3.42L157,69.05l-1.17,2-.32.54a32.87,32.87,0,0,1-2.95,4.32c-.69.85-1.41,1.66-2.15,2.42a35.06,35.06,0,0,1-4,3.53h-.05v0a33.69,33.69,0,0,1-4.48,2.82c-1,.51-1.94,1-2.94,1.39a34.25,34.25,0,0,1-5.59,1.77c-.76.18-1.54.32-2.31.44a34.14,34.14,0,0,1-22.53-4.22c-.52-.29-1-.6-1.51-.91a35.55,35.55,0,0,1-3.28-2.42,34.76,34.76,0,0,1-3.35-3.18l19.77-11.37,5.89-3.38,9.17,16c.25-.09.5-.19.74-.3a26.13,26.13,0,0,0,10.31-7.77c.16-.19.3-.38.44-.57a34.19,34.19,0,0,1-7.61-21.62c0-.59,0-1.17,0-1.75l-12.75-7.4a47.57,47.57,0,0,0-.88,8.06l-8.07,4.63-36,20.69-7.14,4.1L47.82,92.12l17.44,30.34a47.66,47.66,0,0,0,27.26,21.89l0-14.52a34.13,34.13,0,0,1-15.5-14.15L66.39,97.13,81.24,88.6l7.15-4.11a46.12,46.12,0,0,0,4.24,4.6c.52.5,1.05,1,1.6,1.46a48,48,0,0,0,6.55,4.78l0,9.31-.07,34.65h0v6.86l0,8.23-.06,30.56,35,.07c1.26,0,2.51,0,3.75-.13a47.61,47.61,0,0,0,28.83-12.54l-12.55-7.29a34.13,34.13,0,0,1-20,6.36l-21.39,0,0-17.12v-3.55h0V146a45.59,45.59,0,0,0,6.1-1.38c.7-.19,1.38-.41,2.07-.65a47.25,47.25,0,0,0,7.41-3.28l8.06,4.68,16.78,9.73,7.22,4.18,11.9,6.91h0l33.55,19.46,17.56-30.27a47.81,47.81,0,0,0,5.3-34.54A48.77,48.77,0,0,0,227.72,112.87ZM147.29,26.38a34.62,34.62,0,0,1,6.3-5.79,34.23,34.23,0,0,1,17.32-6.26c.88-.07,1.77-.1,2.66-.1l21.4,0-.05,25.4h0V53.5l0,8.43,0,14.36v6.79l-18.44,0c0,.27-.08.53-.11.8a25.87,25.87,0,0,0,1.59,12.8c.08.22.17.45.27.66a34.31,34.31,0,0,1,22.54,4.22c.5.3,1,.6,1.48.93L215,95.1a46.24,46.24,0,0,0-6.53-4.78l0-9.32,0-19.39,0-7.4h.1v-.93a34.67,34.67,0,0,1,8.06,2.55A34.27,34.27,0,0,1,232.15,70l10.66,18.56-33,19-1,.59-7.3,4.2L189,119.41l-5.88,3.38-9.18-16-1.17-2-.31-.55a34.58,34.58,0,0,1-2.26-4.72c-.4-1-.74-2-1-3.08a32.37,32.37,0,0,1-1-5.22v0h0a33.66,33.66,0,0,1-.22-5.31c0-1.08.14-2.17.28-3.25a35.13,35.13,0,0,1,.9-4.5l.36-1.22c.23-.76.49-1.5.77-2.23a34.17,34.17,0,0,1,15-17.41c.51-.29,1-.56,1.54-.83l0-14.75A47.19,47.19,0,0,0,179.33,45l-8.05-4.67Zm13.93,116.77L148.81,136l-5.89-3.42,9.25-16c-.2-.17-.41-.33-.61-.48a25.94,25.94,0,0,0-11.91-5L139,111A34.12,34.12,0,0,1,124,128.37c-.51.29-1,.58-1.54.84a36.26,36.26,0,0,1-3.74,1.64,34.53,34.53,0,0,1-4.43,1.3h0l0-22.8,0-6.79,18.43,0h3a34.78,34.78,0,0,1,5.22.4c1.07.16,2.13.38,3.18.64a34.32,34.32,0,0,1,5,1.69.08.08,0,0,0,0,0l0,0a35,35,0,0,1,4.73,2.49c.91.57,1.8,1.19,2.66,1.84a38,38,0,0,1,3.44,3c.31.31.61.62.9.94.53.57,1.05,1.17,1.53,1.77a34.16,34.16,0,0,1,7.6,21.64c0,.58,0,1.17,0,1.75a33.9,33.9,0,0,1-.45,4,34.7,34.7,0,0,1-1.09,4.5l-2.71-1.58-.1-.05h0Zm51.95,5.39-10.73,18.52-21.95-12.73a46,46,0,0,0,1.87-6c.17-.71.32-1.41.45-2.11a47.11,47.11,0,0,0,.87-8.07l8.07-4.64,16.82-9.66,4.92-2.83h0l.82-.47,1.48-.85a34.35,34.35,0,0,1-2.62,28.82Z"/><path class="cls-2" d="M18.64,242.37c16.81,0,24.48,12,24.69,24.2.28,12.45-7.45,25-24.69,25H0V242.37ZM7.81,284H18.64c12,0,17.09-8.86,16.88-17.51-.21-8.3-5.27-16.61-16.88-16.61H7.81Z"/><path class="cls-2" d="M88.43,281.27H61.77l-4.64,10.34H48.75l22.09-49.24h8.58l22.09,49.24H93.14Zm-13.3-30.6L64.72,274.09H85.54Z"/><path class="cls-2" d="M131.62,291.82h-8.23l-20.47-49.45h8.87l15.68,40,15.76-40H152Z"/><path class="cls-2" d="M199,291.61H162.58V242.37h36.16V250H170.46v13.29h27.15v7.32H170.46v13.22H199Z"/><path class="cls-2" d="M242,253.27c-2.32-3.38-7-5.41-12.17-5.48-6.61,0-11.39,2.74-11.39,7.45s5.48,6.12,12,7c10.13,1.4,19.76,4.22,19.76,15.26s-10.13,15.2-20.4,15.2c-9.42,0-16.67-2.89-21.17-11.19l5.91-3.94c3.52,6,9.64,8.09,15.33,8.09,5.91,0,12.45-2,12.45-8.16,0-5.34-5.69-7.17-12.59-8.09-9.78-1.34-19.06-3.8-19.06-14.35-.07-10.2,10.13-14.14,19-14.14,7.11,0,14.21,1.69,18.36,8.3Z"/><path class="cls-2" d="M295.75,281.27H269.09l-4.64,10.34h-8.37l22.08-49.24h8.59l22.08,49.24h-8.37Zm-13.29-30.6L272,274.09h20.83Z"/><path class="cls-2" d="M33.91,358.23V337.76h-26v20.47H0V309H7.88v21.46h26V309h7.81v49.25Z"/><path class="cls-2" d="M97.52,358.23H61.15V309H97.31v7.67H69V330H96.19v7.32H69v13.22H97.52Z"/><path class="cls-2" d="M148.82,347.89H122.15l-4.64,10.34h-8.37L131.23,309h8.59l22.09,49.25h-8.37Zm-13.3-30.6-10.41,23.43h20.83Z"/><path class="cls-2" d="M183.66,309v41.94h26v7.31H175.78V309Z"/><path class="cls-2" d="M228.62,316.09H212.44V309h40.24v7.11H236.57v42.14h-7.95Z"/><path class="cls-2" d="M301,358.23V337.76H275v20.47h-7.88V309H275v21.46h26V309h7.81v49.25Z"/></g></g></svg>