<?xml version="1.0" encoding="utf-8"?>
<!-- Generator: Adobe Illustrator 24.3.0, SVG Export Plug-In . SVG Version: 6.00 Build 0)  -->
<svg version="1.1" id="Layer_1" xmlns="http://www.w3.org/2000/svg" xmlns:xlink="http://www.w3.org/1999/xlink" x="0px" y="0px"
	 viewBox="0 0 512 512" style="enable-background:new 0 0 512 512;" xml:space="preserve">
<path d="M300,330.7h138.7c12.8,0,25.3,2.9,36.6,8.3L417.4,10.7l-384,64l64,362.6l97.7-16.3C203,369.7,247.6,330.7,300,330.7z"/>
<path d="M406.7,512H300c-41.2,0-74.7-33.5-74.7-74.7c0-41.2,33.5-74.7,74.7-74.7h138.7c29.4,0,53.3,23.9,53.3,53.3
	s-23.9,53.3-53.3,53.3H300c-17.6,0-32-14.4-32-32c0-17.6,14.4-32,32-32h106.7c5.9,0,10.7,4.8,10.7,10.7s-4.8,10.7-10.7,10.7H300
	c-5.9,0-10.7,4.8-10.7,10.7c0,5.9,4.8,10.7,10.7,10.7h138.7c17.6,0,32-14.4,32-32c0-17.6-14.4-32-32-32H300
	c-29.4,0-53.3,23.9-53.3,53.3s23.9,53.3,53.3,53.3h106.7c5.9,0,10.7,4.8,10.7,10.7C417.4,507.2,412.6,512,406.7,512z"/>
<path d="M97.4,448c-5.1,0-9.6-3.6-10.5-8.8l-64-362.6c-0.5-2.8,0.1-5.7,1.8-8c1.6-2.3,4.1-3.9,7-4.4l384-64c5.7-1,11.2,2.9,12.2,8.7
	l55.5,320c1,5.8-2.8,11.3-8.6,12.4c-5.8,1-11.4-2.8-12.4-8.6L408.7,23L45.7,83.4L106,425.1l75.6-12.6c5.8-1,11.3,3,12.3,8.8
	c1,5.8-3,11.3-8.8,12.3l-86,14.3C98.5,448,97.9,448,97.4,448z"/>
</svg>
