<?xml version="1.0" encoding="utf-8"?>
<!-- Generator: Adobe Illustrator 25.0.1, SVG Export Plug-In . SVG Version: 6.00 Build 0)  -->
<svg version="1.1" id="Layer_1" xmlns="http://www.w3.org/2000/svg" xmlns:xlink="http://www.w3.org/1999/xlink" x="0px" y="0px"
	 viewBox="0 0 512 512" style="enable-background:new 0 0 512 512;" xml:space="preserve">
<style type="text/css">
	.st0{display:none;}
</style>
<g>
	<g>
		<path d="M505.9,252.1c0.6-13.1-1.1-29.7-4.6-46C472.8,72.7,350-11.5,215,9.5C77.2,31-17.5,168.3,11.2,305.3
			c34.1,163.3,211.2,248.1,360,172.3c5.7-2.9,10.6-2.3,16.1-1c36.4,8.7,72.9,17.2,109.3,25.9c6.6,1.5,7.9,0.5,6.2-6.6
			c-9-36.9-17.3-74-26.2-111c-1.3-5.3-0.8-9.4,1.7-14.3C496.8,334.6,506.4,296.4,505.9,252.1z M447.9,379
			c6.6,27.1,12.5,54.4,19.2,81.5c1.7,6.7,0.2,7.8-6,6.2c-26.6-6.4-53.2-12.6-79.7-19c-5.4-1.3-9.9-1-15.1,1.9
			c-35.1,20.1-73.1,30.3-113.5,29.3C141.9,476.3,53.5,397,36,291.2C16.2,171.7,98.6,56.2,217.8,36.3c74.3-12.4,139.1,8.3,193.7,59.5
			c43.8,41,67.5,99.1,67.6,160.9c0.1,39.2-9.7,75.8-29.2,109.8C447.6,370.6,446.7,374.1,447.9,379z"/>
		<path class="st0" d="M101.6,226.5c-0.2-41.6,36.6-80.6,86.7-82.1c23.4-0.7,44.5,7.4,61.7,23.7c4.6,4.4,6.9,5.5,12.4,0.4
			c29-27.1,68.1-31.4,103.1-12.1c32.6,18.1,50.9,57.9,44.3,94.9c-4.9,27.6-18.1,50.9-36.3,71.4c-30.9,34.9-69,59.9-110.5,80.2
			c-3.5,1.7-6.8,3.3-10.9,1.2c-50.7-25.1-97.4-55.2-129.6-103.4C109.3,281,101.4,259.1,101.6,226.5z"/>
		<path d="M254.4,220.5c6.9-8.9,12.1-17.6,18.8-25.2c21.2-24.3,49.5-31,76.1-17.6c26.5,13.3,40.2,43,33.9,72.9
			c-4.3,20.4-14.7,37.6-28.1,53c-26.3,30.4-59.2,52.2-94.3,71c-2.8,1.5-5.4,2-8.4,0.4c-39-21.1-75.9-45-102.7-81.3
			c-13.9-18.8-22.7-39.6-21.5-63.7c1.4-26.8,19-49.4,45.1-56.8c25.7-7.3,53.1,2.7,68,25.2C245.9,205.3,249.8,212.7,254.4,220.5z"/>
	</g>
</g>
</svg>
